HIERARCHY
ROOT Hips
{
  OFFSET 0.0 0.0 0.0
  CHANNELS 6 XPOSITION YPOSITION ZPOSITION ZROTATION XROTATION YROTATION 
  JOINT RightUpLeg
  {
    OFFSET -0.089458 -0.0866707 0.00101652
    CHANNELS 3 ZROTATION XROTATION YROTATION 
    JOINT RightLeg
    {
      OFFSET 0.0 -0.444227 0.013727
      CHANNELS 3 ZROTATION XROTATION YROTATION 
      JOINT RightFoot
      {
        OFFSET 0.00253549 -0.420924 -0.0146059
        CHANNELS 3 ZROTATION XROTATION YROTATION 
        End Site
        {
          OFFSET 0.0004 -0.0441509 0.084991
        }
      }
    }
  }
  JOINT Spine
  {
    OFFSET 0.0 0.118905 0.0
    CHANNELS 3 ZROTATION XROTATION YROTATION 
    JOINT Spine1
    {
      OFFSET 0.0 0.256574 0.00127663
      CHANNELS 3 ZROTATION XROTATION YROTATION 
      End Site
      {
        OFFSET -0.0029 0.2150836 0.02525291
      }
      JOINT RightArm
      {
        OFFSET -0.162727 -0.05365632 0.00102123
        CHANNELS 3 ZROTATION XROTATION YROTATION 
        JOINT RightForeArm
        {
          OFFSET -0.26364 0.00099144 -0.0142434
          CHANNELS 3 ZROTATION XROTATION YROTATION 
          End Site
          {
            OFFSET -0.220324 0.00085362 0.0102216
          }
        }
      }
      JOINT LeftArm
      {
        OFFSET 0.162727 -0.0536563199 0.00102123
        CHANNELS 3 ZROTATION XROTATION YROTATION 
        JOINT LeftForeArm
        {
          OFFSET 0.262597 0.00099144 -0.0142434
          CHANNELS 3 ZROTATION XROTATION YROTATION 
          End Site
          {
            OFFSET 0.220902 0.00085362 0.0102216
          }
        }
      }
    }
  }
  JOINT LeftUpLeg
  {
    OFFSET 0.089458 -0.0866707 0.00101652
    CHANNELS 3 ZROTATION XROTATION YROTATION 
    JOINT LeftLeg
    {
      OFFSET 0.0 -0.444227 0.013727
      CHANNELS 3 ZROTATION XROTATION YROTATION 
      JOINT LeftFoot
      {
        OFFSET -0.00253549 -0.420924 -0.0146059
        CHANNELS 3 ZROTATION XROTATION YROTATION 
        End Site
        {
          OFFSET -0.0004 -0.0441509 0.084991
        }
      }
    }
  }
}
MOTION
Frames: 18
Frame Time: 0.033333
-0.151978 0.914625837652 -0.0668731 10.0204996681 -0.816976002098 -85.9869999897 3.31153995257 -22.4571002079 9.66796030788 -1.51764999761 48.7152997267 -19.0617995112 14.9117355903 -60.437441135 23.341898281 10.4879996498 7.80158038132 -1.56774996878 -5.8625400486 3.60358987685 0.123999002792 77.3461618217 -19.1174775057 12.7441938402 6.44134991566 14.7097003022 26.1099997817 -74.0334722629 2.0249406337 4.58565197808 -5.87093008222 18.55510022 -38.8305987335 1.25066003739 -28.9882005168 2.13210993032 1.48749001667 64.9240011555 8.49529025192 -9.18307151832 -44.3607399422 17.5743516496 
-0.1989 0.943262837652 -0.0687564 8.06398002753 -2.49147990661 -83.0919969893 0.0277033006344 -13.814100285 5.41920997193 -1.22124998987 41.585801422 -16.9314003298 16.1007332135 -56.5213419291 22.4194351298 8.16093029393 2.7847900008 -0.759076008256 -5.88621988756 5.79110993026 0.734223991435 76.7003947564 -19.0213579611 8.70793197003 5.3259702058 17.4561996222 29.6270998269 -70.9696269862 1.97905649008 7.45617515367 -2.41414999893 22.5502998467 -51.8448001969 0.628414009186 -26.7433000442 3.21970998017 1.48710998067 65.1298972081 8.91601965951 -8.65469662186 -28.7909856347 18.0751069686 
-0.246407 0.978246837652 -0.0685854 5.4190101889 -3.52563009767 -80.4532968374 -1.63765001802 -5.90314979208 2.16120995128 -1.04446996656 36.1217013124 -15.1803993738 17.671980666 -45.9619377742 19.6207958532 6.60041989879 -0.851144983916 -0.388170989713 -6.16923005648 7.59771972516 1.19794997346 76.1526613963 -18.2489113773 5.35598803343 4.42760012002 19.1783003403 32.2064012386 -68.5856109281 2.43060755318 9.43973722072 -1.06889995239 23.4009999078 -61.4854995122 0.46927401662 -23.0459000804 4.04868000789 1.51920994878 62.4039004084 11.6869001935 -7.00861078661 -16.2526280829 18.0963044606 
-0.289009 1.01342283765 -0.0657014 3.0303099017 -3.52247006796 -79.5728991138 -2.08793995073 -2.77791007932 0.0238047000263 -0.958785029976 36.2134000171 -13.4365999985 16.9617571055 -29.884249619 15.8197238631 7.24069036932 -2.41657002034 -0.0089195800557 -7.849680281 8.3070596299 1.85892989772 75.9679047793 -18.2005092417 3.4692942705 3.78578005032 20.3301007532 34.9010986964 -67.0977908212 1.70149883983 11.3312488283 -3.71091989636 22.5270003639 -67.6518967478 0.834058998903 -19.3272001717 4.56951992503 1.52366995559 57.9230026148 13.871500341 -5.45835037097 -14.9009575518 17.7729291544 
-0.324124 1.04017283765 -0.0623431 1.70892997892 -3.30964009276 -80.1661010432 -2.61663010311 -5.24023980577 -0.695422006925 -0.920421031347 41.6786988249 -10.880200211 14.4021232235 -17.1469815905 13.7462150349 8.2377502853 -1.70486996507 0.526462977097 -10.0666000299 7.54494968363 2.53129990948 75.8042944279 -19.1140197225 2.52982224074 3.11766994217 21.3941007919 38.6114008875 -66.7027053588 0.133362658536 12.9770281588 -7.97910041294 21.6431994985 -71.0805970696 0.490231011345 -17.5869004146 3.93159007495 1.33955004024 53.4017008371 13.7049999659 -5.281521896 -23.6771017673 17.7377775858 
-0.353735 1.05418283765 -0.0602894 1.03265000403 -3.47245003134 -80.7936998052 -3.30012990811 -10.2556997935 -0.640811976469 -1.02297002515 48.3448985681 -9.34696019991 12.3547082792 -15.1907556481 13.8787283887 7.45591987535 1.14715001462 0.715678000126 -10.3430997479 5.82359004108 2.61394007579 75.3583377166 -19.8918963066 2.47554144674 2.55344999951 22.1490996575 42.6264012326 -67.3499204242 -1.54057766199 13.9384447326 -10.091000027 21.4859002419 -73.0206030203 -1.01658998814 -17.587600509 1.40595996954 1.17340995754 48.692200027 13.7425002657 -6.36577899513 -35.1627325077 17.8553917358 
-0.379851 1.05967283765 -0.0591647 0.0821648011573 -3.79986005841 -80.7172016865 -4.05674987639 -14.6815991964 -0.884043016941 -1.08234998225 50.8777000519 -10.3852001802 11.7857125402 -20.394705805 14.7691485612 5.53135997056 5.68605991328 0.360227992127 -8.32790024461 3.84920988271 2.00218009551 74.8104336017 -20.1612021279 3.70351042177 2.37340002313 22.4127005632 45.7499013816 -68.4474362012 -3.03805640343 14.1698455653 -10.049200123 21.6800995955 -74.1948013311 -3.00175010601 -17.7466004827 -2.4453199941 1.14981005314 42.8841998927 15.9582008259 -6.41478602932 -43.3551721718 17.8077323833 
-0.402343 1.05731283765 -0.0581191 -0.95462096246 -3.8686998275 -80.3212009788 -4.73297019385 -18.1870008351 -0.975159021129 -1.10506004108 47.5787016073 -12.2209996423 12.3755514553 -25.8492641404 15.4999497741 4.51046995145 11.0362000241 -0.168322995143 -6.85710011534 1.86823005405 1.3683599916 74.5200822601 -20.6976127419 5.78797273899 2.48194005333 22.3999007887 47.902199857 -69.1343073448 -4.06478602084 13.523056533 -10.3091998115 21.6486995083 -74.2466971084 -4.48075990922 -18.2506001415 -5.88602992293 1.18091003886 36.7691007929 18.3906992743 -5.06268306188 -48.6433266084 17.9273170428 
-0.424743 1.04640283765 -0.0557989 -1.2824099583 -3.03868008508 -80.1820017236 -4.3622599691 -21.6855005676 0.648390978487 -1.04211002948 40.6227003528 -13.4722996897 11.6532068703 -29.9405474532 16.2186069106 6.27705996046 15.6127998671 -0.710677020993 -8.0460396819 0.0444587985402 1.4480800386 74.572756679 -22.1179403345 7.58743943669 2.55119006067 22.4054998363 49.5918008275 -68.8041155098 -3.97285124772 11.8576822435 -11.5793998462 21.202000014 -72.8346989315 -4.66039004241 -19.8686992767 -7.84248040784 1.13563004681 30.6851985822 18.602199497 -4.5780832747 -53.6227462492 18.0639566847 
-0.451308 1.02412283765 -0.0528821 -0.901789022343 -1.82040997868 -80.7459021414 -3.02174996712 -25.411899807 5.3233200924 -0.993883984739 33.7701013321 -14.7766002976 9.8687183506 -35.6908734701 17.2262305679 9.38535013191 18.4179005026 -1.0481400193 -10.9850999638 -0.965040949647 2.31914996499 74.8134457152 -23.8834059236 8.9356555996 2.65799991858 22.3557999648 50.3840003183 -67.5720859873 -2.81529810795 9.78046718388 -12.8179001191 20.5546005335 -70.7478029325 -4.18455979124 -22.3456007848 -8.57480987556 1.4094300258 25.3879992676 17.0769994723 -5.15633093182 -57.4530787697 18.0020888312 
-0.480845 0.989232837652 -0.0522482 -0.977682028975 -1.68809000455 -81.3591984874 -2.42732009776 -28.978600686 10.8592998322 -1.0528099477 31.4239006164 -16.2365002987 9.30429883835 -41.2323630381 18.0890849507 9.95419987561 20.3699993033 -1.03473001008 -12.8138002981 -0.889258026455 3.13024005157 75.312315902 -24.854057767 11.2387800198 3.03277005046 22.0470002822 49.0584996571 -66.4806559089 -2.01226508327 7.7991479802 -13.575700216 19.892000467 -68.5348967735 -4.70284009499 -25.3400991509 -9.22232973812 2.09316995465 24.9973004942 16.622699685 -4.38592401325 -56.1940153584 18.1514975118 
-0.508018 0.948370837652 -0.0548148 -2.43074991994 -2.96093993917 -80.6718970418 -3.60743996911 -32.228800844 11.9945003241 -1.03454004544 36.5590007589 -15.8720004235 9.44152331519 -42.3546280056 18.2664410578 7.33846964993 23.0056002568 -1.10383999854 -12.0212003873 -0.191964000748 2.88947993875 76.2804815564 -24.6079865417 15.4818822162 3.12515006653 21.7932997357 45.2062012482 -66.7384818897 -2.56404810522 4.60127262071 -13.6475000183 18.9563004092 -64.3485986991 -6.68713000407 -28.8952996988 -11.675499754 0.9862849724 32.4127002723 19.3861993458 -1.45367535091 -48.9278005722 18.3743307259 
-0.532592 0.908176837652 -0.0577267 -4.63789993702 -4.33184001408 -78.5642987394 -5.67961008027 -35.0353016683 8.28171023657 -1.12611004377 47.2570987352 -13.39450042 9.41285871879 -40.847324784 18.0242357196 5.33783979392 26.0569001836 -1.52724001009 -10.3848996518 0.900528959163 1.95023010357 77.411198883 -23.6007436675 20.226575576 2.30053001554 22.2832992143 39.6368001122 -68.6022151179 -3.03761500246 -1.80855703915 -12.4263996523 17.2941004502 -55.0254007273 -8.32868998523 -32.737499673 -9.92616024152 1.20487994742 44.4857016681 16.5115007902 1.66766699188 -41.7031235814 18.1735675605 
-0.558512 0.878045837652 -0.0583327 -6.40742009718 -4.48279018295 -76.5654028977 -6.81432989765 -36.5146011142 4.28873981287 -1.38735005193 57.069498761 -11.2858997873 9.72311664675 -41.664041239 18.1680385224 6.63468994606 27.7173994255 -2.10619000275 -10.5167001047 2.48305999091 1.71562996761 77.8608097455 -21.9677376445 22.8276191874 1.35859997144 23.1990004782 33.3162011108 -70.9330581533 -0.840147365497 -10.2465516089 -11.0256004243 13.8748001762 -40.5052006085 -8.53604001428 -35.1333012225 -9.2144903885 1.44949004578 54.8029004849 14.165599749 2.81341212196 -41.5692211378 18.18970559 
-0.585666 0.868618837652 -0.05774 -7.03481993 -3.89391005573 -76.0777000702 -5.95450000804 -36.1414986157 3.41361008608 -1.53446997877 61.3678016925 -11.2312002174 10.4378967972 -45.2593537803 18.8331930796 8.68500985517 27.276399724 -2.07456003703 -12.1419999668 4.08107986399 2.64003993616 77.2570141926 -18.7891964161 22.4771980396 1.47278003035 22.957100791 26.8549002126 -72.3530476516 3.65925677236 -16.1912007766 -11.3644000052 6.59745004716 -26.4952992906 -7.63693013364 -35.146100997 -8.92893042459 1.58702999198 59.5467981277 13.7632000078 2.53508959725 -46.1000578596 18.6258575647 
-0.613358 0.875051837652 -0.0572607 -6.50791010912 -3.28352998711 -76.8984975631 -4.05488011211 -34.7895992733 5.12119003542 -1.57880996604 61.155696998 -12.2378002001 11.1623758162 -47.874868855 19.4029589225 8.68841982712 25.810600147 -1.16844003443 -12.5778001868 4.81468017378 3.62408983587 76.7564637793 -15.2218176409 20.7345247917 2.20535004879 22.8957998432 21.1984005043 -74.6749226486 2.7406691132 -16.5852753709 -12.5150000124 0.592280974456 -17.8646995761 -6.46137987229 -33.7301003293 -8.73095995281 1.61915994889 59.6594006263 14.3764007311 1.31604703914 -48.9898118597 18.7812665665 
-0.639866 0.889338837652 -0.0566882 -5.21244990047 -2.84844992519 -77.6842015441 -2.92897998994 -33.0707002064 6.41149003615 -1.50433998663 58.7303992765 -12.6980004171 11.5088294779 -48.1826337639 19.5075376564 7.18322030387 24.2914994813 -0.298514004645 -11.1967999696 4.66022014145 3.73488019996 77.8800435582 -16.1017338362 18.7624493953 2.82677005099 27.9567002257 17.3679006442 -78.5209270382 -9.04019335239 -13.0848768458 -14.0090996245 4.99963998895 -12.8696003823 -5.65331000998 -31.9168012178 -8.85350037671 1.55923997996 57.4050966907 15.0406998071 0.0701087168594 -48.9365807804 18.6087530635 
-0.663849 0.909941837652 -0.0550874 -3.45256991199 -2.20266002147 -77.9006980502 -2.77093005287 -31.0041001145 5.91919988286 -1.31861999274 54.503799671 -12.2977001053 12.1079309832 -48.0119029404 19.5466968384 6.51386987606 22.7215002458 -0.0387189983783 -9.9733303817 4.36397007771 3.43949991813 78.9225489916 -17.7394731803 15.7320993662 2.49897006281 32.0488014537 16.2897006422 -79.1605879143 -12.6607238059 -8.44476990395 -14.337799917 5.49316982159 -11.8058001266 -4.94529985769 -29.8077002738 -9.36656967301 1.42741999702 53.3166000951 15.6193004996 -0.998381130699 -48.8295756217 18.4585691565 
